<?xml version="1.0" encoding="utf-8"?>
<!-- Generator: Adobe Illustrator 25.2.1, SVG Export Plug-In . SVG Version: 6.00 Build 0)  -->
<svg version="1.1" id="Layer_1" xmlns="http://www.w3.org/2000/svg" xmlns:xlink="http://www.w3.org/1999/xlink" x="0px" y="0px"
	 viewBox="0 0 32 32" style="enable-background:new 0 0 32 32;" xml:space="preserve">
<style type="text/css">
	.st0{fill:#FF0000;}
</style>
<g>
	<path class="st0" d="M6.39,30.11c-1.45,0-3.01-1.15-3.01-3V4.89c0-1.86,1.56-3,3-3c0.52,0,1.03,0.14,1.5,0.41L27.12,13.4
		c0.94,0.54,1.5,1.51,1.5,2.6c0,1.08-0.56,2.06-1.5,2.6L7.88,29.71C7.41,29.97,6.91,30.11,6.39,30.11
		C6.39,30.11,6.39,30.11,6.39,30.11z"/>
	<path class="st0" d="M6.39,2.39c0.43,0,0.85,0.11,1.24,0.34l19.24,11.11c0.78,0.45,1.25,1.26,1.25,2.17c0,0.9-0.47,1.71-1.25,2.17
		L7.63,29.27c-0.39,0.23-0.81,0.34-1.24,0.34c-1.2,0-2.51-0.96-2.51-2.51V4.89C3.88,3.35,5.18,2.39,6.39,2.39 M6.39,1.39
		c-1.83,0-3.51,1.46-3.51,3.51v22.21c0,2.04,1.68,3.51,3.51,3.51c0.58,0,1.18-0.15,1.74-0.47l19.24-11.11
		c2.33-1.35,2.33-4.72,0-6.06L8.13,1.86C7.57,1.54,6.97,1.39,6.39,1.39L6.39,1.39z"/>
</g>
<g>
	<g>
		<path class="st0" d="M17.5,7.85l11.9,6.87c0.46,0.27,0.74,0.74,0.74,1.28s-0.28,1.01-0.74,1.28l-11.9,6.87V7.85z"/>
		<path class="st0" d="M18,8.71l11.15,6.44c0.44,0.25,0.49,0.68,0.49,0.85c0,0.17-0.05,0.59-0.49,0.85L18,23.29V8.71 M17,6.98v18.03
			l12.65-7.31c1.32-0.76,1.32-2.66,0-3.42L17,6.98L17,6.98z"/>
	</g>
</g>
</svg>
